<?xml version="1.0" encoding="UTF-8" standalone="no"?>
<!-- Created with Inkscape (http://www.inkscape.org/) -->

<svg
   xmlns:dc="http://purl.org/dc/elements/1.1/"
   xmlns:cc="http://creativecommons.org/ns#"
   xmlns:rdf="http://www.w3.org/1999/02/22-rdf-syntax-ns#"
   xmlns:svg="http://www.w3.org/2000/svg"
   xmlns="http://www.w3.org/2000/svg"
   xmlns:sodipodi="http://sodipodi.sourceforge.net/DTD/sodipodi-0.dtd"
   xmlns:inkscape="http://www.inkscape.org/namespaces/inkscape"
   width="42"
   height="21.000002"
   id="svg2"
   version="1.1"
   inkscape:version="0.48.4 r9939"
   sodipodi:docname="theThing.svg"
   inkscape:export-filename="D:\WIP\Au-Delà\assets\gfx\theThing.png"
   inkscape:export-xdpi="719.99994"
   inkscape:export-ydpi="719.99994">
  <defs
     id="defs4" />
  <sodipodi:namedview
     id="base"
     pagecolor="#ffffff"
     bordercolor="#666666"
     borderopacity="1.0"
     inkscape:pageopacity="0.0"
     inkscape:pageshadow="2"
     inkscape:zoom="22.4"
     inkscape:cx="16.182039"
     inkscape:cy="9.945215"
     inkscape:document-units="px"
     inkscape:current-layer="layer1"
     showgrid="false"
     fit-margin-top="0"
     fit-margin-left="0"
     fit-margin-right="0"
     fit-margin-bottom="0"
     inkscape:window-width="1920"
     inkscape:window-height="1028"
     inkscape:window-x="-8"
     inkscape:window-y="-8"
     inkscape:window-maximized="1" />
  <metadata
     id="metadata7">
    <rdf:RDF>
      <cc:Work
         rdf:about="">
        <dc:format>image/svg+xml</dc:format>
        <dc:type
           rdf:resource="http://purl.org/dc/dcmitype/StillImage" />
        <dc:title></dc:title>
      </cc:Work>
    </rdf:RDF>
  </metadata>
  <g
     inkscape:label="Layer 1"
     inkscape:groupmode="layer"
     id="layer1"
     transform="translate(-274.4179,-580.58134)">
    <path
       sodipodi:type="arc"
       style="fill:#141414;fill-opacity:1;stroke:#000000;stroke-width:65.62438965;stroke-miterlimit:4;stroke-opacity:0.07843137;stroke-dasharray:none"
       id="path2985-1"
       sodipodi:cx="421.42856"
       sodipodi:cy="498.79074"
       sodipodi:rx="144.28572"
       sodipodi:ry="135"
       d="m 565.71428,498.79074 c 0,74.55844 -64.59892,135 -144.28572,135 -79.6868,0 -144.28572,-60.44156 -144.28572,-135 0,-74.55844 64.59892,-135 144.28572,-135 79.6868,0 144.28572,60.44156 144.28572,135 z"
       transform="matrix(0.05892004,0,0,0.06297275,260.08731,559.67112)"
       inkscape:export-filename="D:\WIP\Au-Delà\assets\gfx\theThing.png"
       inkscape:export-xdpi="359.67072"
       inkscape:export-ydpi="359.67072" />
    <path
       sodipodi:type="arc"
       style="fill:#ffffff;fill-opacity:1;stroke:#3c3c3c;stroke-opacity:1"
       id="path3755-7"
       sodipodi:cx="-41.289986"
       sodipodi:cy="-6.2665172"
       sodipodi:rx="15.026019"
       sodipodi:ry="13.889598"
       d="m -26.263967,-6.2665172 c 0,7.6710131 -6.727377,13.8895979 -15.026019,13.8895979 -8.298641,0 -15.026019,-6.2185848 -15.026019,-13.8895979 0,-7.6710128 6.727378,-13.8895978 15.026019,-13.8895978 8.298642,0 15.026019,6.218585 15.026019,13.8895978 z"
       transform="matrix(0.16081233,0,0,0.1739697,291.56478,592.16459)"
       inkscape:export-filename="D:\WIP\Au-Delà\assets\gfx\theThing.png"
       inkscape:export-xdpi="359.67072"
       inkscape:export-ydpi="359.67072" />
    <path
       sodipodi:type="arc"
       style="fill:#000000;fill-opacity:1;stroke:none"
       id="path3757-4"
       sodipodi:cx="-58.210041"
       sodipodi:cy="-18.514616"
       sodipodi:rx="6.6922607"
       sodipodi:ry="7.1973367"
       d="m -51.51778,-18.514616 c 0,3.974979 -2.996227,7.197337 -6.692261,7.197337 -3.696034,0 -6.692261,-3.222358 -6.692261,-7.197337 0,-3.974979 2.996227,-7.197337 6.692261,-7.197337 3.696034,0 6.692261,3.222358 6.692261,7.197337 z"
       transform="matrix(0.07471317,0,0,0.06947014,289.27389,592.36062)"
       inkscape:export-filename="D:\WIP\Au-Delà\assets\gfx\theThing.png"
       inkscape:export-xdpi="359.67072"
       inkscape:export-ydpi="359.67072" />
    <path
       sodipodi:type="arc"
       style="fill:#141414;fill-opacity:1;stroke:#000000;stroke-width:65.62438965;stroke-miterlimit:4;stroke-opacity:0.07843137;stroke-dasharray:none"
       id="path2985-0-5-7"
       sodipodi:cx="421.42856"
       sodipodi:cy="498.79074"
       sodipodi:rx="144.28572"
       sodipodi:ry="135"
       d="m 565.71428,498.79074 c 0,74.55844 -64.59892,135 -144.28572,135 -79.6868,0 -144.28572,-60.44156 -144.28572,-135 0,-74.55844 64.59892,-135 144.28572,-135 79.6868,0 144.28572,60.44156 144.28572,135 z"
       transform="matrix(0.05892004,0,0,0.06297275,281.08731,559.67112)"
       inkscape:export-filename="D:\WIP\Au-Delà\assets\gfx\theThing.png"
       inkscape:export-xdpi="359.67072"
       inkscape:export-ydpi="359.67072" />
    <path
       sodipodi:type="arc"
       style="fill:#ffffff;fill-opacity:1;stroke:#3c3c3c;stroke-opacity:1"
       id="path3755-9-5-1"
       sodipodi:cx="-41.289986"
       sodipodi:cy="-6.2665172"
       sodipodi:rx="15.026019"
       sodipodi:ry="13.889598"
       d="m -26.263967,-6.2665172 c 0,7.6710131 -6.727377,13.8895979 -15.026019,13.8895979 -8.298641,0 -15.026019,-6.2185848 -15.026019,-13.8895979 0,-7.6710128 6.727378,-13.8895978 15.026019,-13.8895978 8.298642,0 15.026019,6.218585 15.026019,13.8895978 z"
       transform="matrix(0.20905604,0,0,0.22616061,314.79982,592.49164)"
       inkscape:export-filename="D:\WIP\Au-Delà\assets\gfx\theThing.png"
       inkscape:export-xdpi="359.67072"
       inkscape:export-ydpi="359.67072" />
    <path
       sodipodi:type="arc"
       style="fill:#000000;fill-opacity:1;stroke:none"
       id="path3757-48-1-1"
       sodipodi:cx="-58.210041"
       sodipodi:cy="-18.514616"
       sodipodi:rx="6.6922607"
       sodipodi:ry="7.1973367"
       d="m -51.51778,-18.514616 c 0,3.974979 -2.996227,7.197337 -6.692261,7.197337 -3.696034,0 -6.692261,-3.222358 -6.692261,-7.197337 0,-3.974979 2.996227,-7.197337 6.692261,-7.197337 3.696034,0 6.692261,3.222358 6.692261,7.197337 z"
       transform="matrix(0.18678292,0,0,0.17367536,317.04054,594.28994)"
       inkscape:export-filename="D:\WIP\Au-Delà\assets\gfx\theThing.png"
       inkscape:export-xdpi="359.67072"
       inkscape:export-ydpi="359.67072" />
  </g>
</svg>
